<?xml version="1.0" standalone="no"?>
<!DOCTYPE svg PUBLIC "-//W3C//DTD SVG 20010904//EN"
 "http://www.w3.org/TR/2001/REC-SVG-20010904/DTD/svg10.dtd">
<svg version="1.0" xmlns="http://www.w3.org/2000/svg"
 width="316.000000pt" height="316.000000pt" viewBox="0 0 316.000000 316.000000"
 preserveAspectRatio="xMidYMid meet">
<metadata>
Created by potrace 1.11, written by Peter Selinger 2001-2013
</metadata>
<g transform="translate(0.000000,316.000000) scale(0.100000,-0.100000)"
fill="#000000" stroke="none">
<path d="M1407 3093 c-4 -3 -39 -7 -79 -8 -40 -1 -80 -4 -88 -7 -8 -4 -28 -6
-45 -6 -25 -1 -66 -9 -120 -26 -10 -3 -59 -22 -85 -33 -8 -3 -17 -7 -20 -7
-11 -2 -104 -60 -128 -80 -42 -34 -105 -98 -132 -134 -38 -51 -89 -145 -90
-164 0 -10 -4 -18 -9 -18 -5 0 -12 -19 -16 -42 -4 -24 -10 -47 -13 -53 -8 -13
-12 -39 -16 -102 -1 -29 -6 -56 -9 -60 -4 -3 -2 -12 4 -19 7 -8 7 -14 -1 -19
-8 -5 -8 -11 1 -21 8 -10 9 -18 0 -27 -6 -8 -8 -17 -5 -20 3 -3 8 -32 9 -64 2
-32 6 -69 9 -83 3 -14 7 -34 8 -45 2 -11 7 -24 12 -30 4 -5 23 -39 40 -75 29
-59 34 -65 60 -63 16 1 32 6 35 12 6 9 125 72 138 72 5 0 15 6 23 13 24 20
200 99 200 89 0 -3 6 -1 13 4 13 11 67 27 80 25 4 -1 7 3 7 9 0 6 9 9 20 6 11
-3 20 -1 20 4 0 5 9 9 19 9 11 0 23 5 26 11 4 6 13 8 21 5 7 -3 16 -1 19 4 4
6 17 10 31 10 31 0 30 9 -3 59 -32 49 -38 108 -15 136 21 24 67 49 79 42 4 -2
19 0 33 5 15 6 196 11 460 12 239 0 441 5 448 9 9 6 12 86 12 343 l0 334 -474
0 c-260 0 -476 -3 -479 -7z"/>
<path d="M1394 2068 c-3 -5 -11 -8 -17 -7 -7 1 -21 -1 -32 -5 -11 -5 -27 -10
-35 -14 -8 -3 -18 -6 -22 -7 -5 -2 -11 -4 -15 -5 -5 -2 -12 -4 -18 -5 -15 -3
-67 -23 -120 -45 -16 -8 -34 -14 -40 -14 -19 -2 -285 -139 -285 -148 0 -4 -7
-8 -15 -8 -8 0 -15 -4 -15 -10 0 -5 -7 -6 -17 -3 -43 17 131 -185 213 -247 48
-36 84 -60 89 -60 4 0 25 -13 48 -28 23 -16 50 -31 60 -35 9 -4 17 -11 17 -17
0 -6 3 -9 8 -6 4 2 26 -9 50 -25 23 -16 47 -29 52 -29 6 0 10 -4 10 -10 0 -5
4 -10 9 -10 4 0 48 -25 97 -55 49 -31 97 -58 107 -61 9 -4 17 -10 17 -15 0 -5
4 -9 9 -9 15 0 114 -62 134 -84 9 -10 17 -16 17 -13 0 4 20 -14 45 -41 25 -26
45 -53 45 -59 0 -7 5 -13 11 -13 5 0 8 -4 4 -9 -3 -5 -1 -12 3 -15 15 -9 6
-81 -13 -114 -18 -29 -60 -55 -91 -55 -8 0 -14 -3 -14 -7 0 -3 -231 -6 -512
-5 -282 0 -521 -1 -530 -3 -17 -4 -18 -29 -18 -357 l0 -353 528 3 c473 3 604
6 737 18 56 5 118 18 130 27 6 5 12 8 15 8 16 0 67 16 78 25 6 5 12 7 12 3 0
-8 76 31 130 68 25 17 46 30 47 29 1 -2 33 28 71 65 70 68 111 123 147 197 11
22 24 43 28 46 5 3 8 10 8 15 -1 5 7 32 16 59 9 28 18 61 21 75 9 45 14 321 6
338 -4 10 -6 21 -5 26 4 18 -33 122 -68 191 -36 73 -73 128 -104 157 -10 9
-18 19 -17 23 1 4 -24 31 -54 61 -31 31 -56 53 -56 50 0 -3 -13 7 -29 22 -41
38 -118 92 -131 92 -5 0 -10 5 -10 11 0 5 -4 8 -9 5 -5 -3 -14 1 -21 9 -7 8
-19 15 -26 15 -8 0 -14 5 -14 12 0 6 -3 8 -7 5 -3 -4 -16 2 -27 12 -12 11 -28
21 -36 23 -8 2 -20 8 -27 13 -27 21 -40 31 -74 49 -84 46 -124 70 -129 76 -3
3 -20 12 -37 19 -18 8 -33 17 -33 20 0 4 -21 18 -47 31 -27 12 -56 30 -65 38
-10 8 -18 12 -18 9 0 -4 -8 1 -18 11 -48 45 -77 61 -109 60 -19 -1 -36 -5 -39
-10z"/>
</g>
</svg>
